<?xml version="1.0" encoding="UTF-8" standalone="no"?>
<!-- Uploaded to: SVG Repo, www.svgrepo.com, Generator: SVG Repo Mixer Tools -->

<svg
   fill="#000000"
   width="800px"
   height="800px"
   viewBox="0 0 1024 1024"
   class="icon"
   version="1.1"
   id="svg1"
   sodipodi:docname="logo-light.svg"
   inkscape:version="1.3.2 (091e20ef0f, 2023-11-25, custom)"
   xmlns:inkscape="http://www.inkscape.org/namespaces/inkscape"
   xmlns:sodipodi="http://sodipodi.sourceforge.net/DTD/sodipodi-0.dtd"
   xmlns="http://www.w3.org/2000/svg"
   xmlns:svg="http://www.w3.org/2000/svg">
  <defs
     id="defs1" />
  <sodipodi:namedview
     id="namedview1"
     pagecolor="#ffffff"
     bordercolor="#000000"
     borderopacity="0.25"
     inkscape:showpageshadow="2"
     inkscape:pageopacity="0.0"
     inkscape:pagecheckerboard="0"
     inkscape:deskcolor="#d1d1d1"
     inkscape:zoom="0.96"
     inkscape:cx="400"
     inkscape:cy="400"
     inkscape:window-width="1920"
     inkscape:window-height="966"
     inkscape:window-x="0"
     inkscape:window-y="0"
     inkscape:window-maximized="1"
     inkscape:current-layer="svg1" />
  <path
     d="M864 144H560c-8.8 0-16 7.2-16 16v304c0 8.8 7.2 16 16 16h304c8.8 0 16-7.2 16-16V160c0-8.8-7.2-16-16-16zm0 400H560c-8.8 0-16 7.2-16 16v304c0 8.8 7.2 16 16 16h304c8.8 0 16-7.2 16-16V560c0-8.8-7.2-16-16-16zM464 144H160c-8.8 0-16 7.2-16 16v304c0 8.8 7.2 16 16 16h304c8.8 0 16-7.2 16-16V160c0-8.8-7.2-16-16-16zm0 400H160c-8.8 0-16 7.2-16 16v304c0 8.8 7.2 16 16 16h304c8.8 0 16-7.2 16-16V560c0-8.8-7.2-16-16-16z"
     id="path1"
     style="fill:#f5f5f5;fill-opacity:1" />
</svg>
