<svg width="200" height="200" viewBox="0 0 200 200" fill="none" xmlns="http://www.w3.org/2000/svg">
<path d="M75.8066 24.5068C77.5239 23.6686 79.5695 23.8822 81.0762 25.0576L172.076 96.0576L172.298 96.2412C173.376 97.1873 174 98.5561 174 100C174 101.54 173.29 102.995 172.076 103.942L81.0762 174.942C79.5695 176.118 77.524 176.331 75.8066 175.493C74.0894 174.655 73 172.911 73 171V110.167L33.0527 140.96C30.8657 142.646 27.7259 142.24 26.04 140.053C24.3544 137.866 24.7604 134.726 26.9473 133.04L69.8105 100L26.9473 66.96C24.7605 65.274 24.3543 62.1342 26.04 59.9473C27.7259 57.7605 30.8658 57.3544 33.0527 59.04L73 89.832V29C73.0001 27.0891 74.0894 25.3451 75.8066 24.5068ZM83 160.757L160.871 100L83 39.2432V160.757Z" fill="white"/>
</svg>
