<svg width="200" height="200" viewBox="0 0 200 200" fill="none" xmlns="http://www.w3.org/2000/svg">
<path d="M65 23C67.7614 23 70 25.2386 70 28V171C70 173.761 67.7614 176 65 176C62.2387 176 60 173.761 60 171V109.396L19.0527 140.96C16.8657 142.646 13.7259 142.24 12.04 140.053C10.3544 137.866 10.7604 134.726 12.9473 133.04L55.8105 100L12.9473 66.96C10.7605 65.274 10.3543 62.1342 12.04 59.9473C13.7259 57.7604 16.8657 57.3544 19.0527 59.04L60 90.6035V28C60 25.2386 62.2387 23.0001 65 23ZM132 23C134.761 23 137 25.2386 137 28V41.2881L177.729 67.8096L177.987 67.9902C179.249 68.9299 180 70.4147 180 72C180 73.6909 179.146 75.2677 177.729 76.1904L141.163 99.999L177.729 123.81L177.987 123.99C179.249 124.93 180 126.415 180 128C180 129.691 179.146 131.268 177.729 132.19L137 158.711V171C137 173.761 134.761 176 132 176C129.239 176 127 173.761 127 171V28C127 25.2386 129.239 23.0001 132 23ZM137 146.777L165.837 128L137 109.223V146.777ZM137 90.7773L165.837 72L137 53.2227V90.7773Z" fill="white"/>
</svg>
