<?xml version="1.0" encoding="UTF-8" standalone="no"?>
<!-- Uploaded to: SVG Repo, www.svgrepo.com, Generator: SVG Repo Mixer Tools -->

<svg
   fill="#000000"
   height="16mm"
   width="16mm"
   version="1.1"
   id="Layer_1"
   viewBox="0 0 38.702362 38.702362"
   xml:space="preserve"
   sodipodi:docname="logo-dark.svg"
   inkscape:version="1.3.2 (091e20ef0f, 2023-11-25, custom)"
   xmlns:inkscape="http://www.inkscape.org/namespaces/inkscape"
   xmlns:sodipodi="http://sodipodi.sourceforge.net/DTD/sodipodi-0.dtd"
   xmlns="http://www.w3.org/2000/svg"
   xmlns:svg="http://www.w3.org/2000/svg"><defs
   id="defs4" /><sodipodi:namedview
   id="namedview4"
   pagecolor="#ffffff"
   bordercolor="#000000"
   borderopacity="0.25"
   inkscape:showpageshadow="2"
   inkscape:pageopacity="0.0"
   inkscape:pagecheckerboard="0"
   inkscape:deskcolor="#d1d1d1"
   inkscape:zoom="3.84"
   inkscape:cx="62.5"
   inkscape:cy="58.333333"
   inkscape:window-width="1920"
   inkscape:window-height="966"
   inkscape:window-x="0"
   inkscape:window-y="0"
   inkscape:window-maximized="1"
   inkscape:current-layer="Layer_1"
   inkscape:document-units="mm" />


<g
   id="g5"
   transform="matrix(0.06531301,0,0,0.06531301,4.0612007,2.9760889)"
   style="fill:#202020;fill-opacity:1"><path
     id="path2"
     style="stroke-width:1.01374;fill:#202020;fill-opacity:1"
     d="m 299.51875,21.51 c -2.39159,-0.206705 -4.82628,0.225734 -6.91,1.25875 -19.2453,9.540762 -56.19525,33.889251 -62.095,82.06125 -48.18121,1.51165 -86.6675,33.26407 -86.6675,72.23375 0,31.92322 -13.93879,62.6463 -39.45875,87.16375 -24.413397,23.45313 -39.1,53.62915 -39.1,86.555 0,74.69197 75.58323,135.24 168.81625,135.24 93.23303,0 168.815,-60.54803 168.815,-135.24 -2.7e-4,-8.7551 -1.06755,-17.30741 -3.05125,-25.59875 A 100.04611,104.69455 0 0 1 373.70875,328.9625 100.04611,104.69455 0 0 1 273.6625,224.26875 100.04611,104.69455 0 0 1 312.7075,141.6075 c -11.27639,-16.0027 -29.89242,-28.2457 -52.23875,-33.70625 8.93742,-12.439736 27.31145,-33.931649 54.3525,-45.7925 4.73544,-2.077827 6.86537,-6.624155 4.9875,-10.68 l -11.2475,-24.28 c -1.13714,-2.454376 -3.5891,-4.36913 -6.68,-5.2175 -0.77301,-0.21232 -1.5653,-0.352348 -2.3625,-0.42125 z" /><path
     d="m 236.85725,48.747334 c -4.358,-24.262 -38.537,-38.426 -76.341,-31.636 -28.597,5.136 -62.614,37.194 -77.487,52.505 -1.838,1.892 -2.651,4.556 -2.184,7.153 0.467,2.597 2.156,4.81 4.538,5.943 19.272,9.179 62.318,27.395996 90.914,22.259996 37.803,-6.788996 64.918,-31.961996 60.56,-56.224996 z"
     id="path1"
     style="fill:#202020;fill-opacity:1" /></g></svg>
